<?xml version="1.0" encoding="utf-8"?>
<!-- Generator: Adobe Illustrator 25.0.1, SVG Export Plug-In . SVG Version: 6.00 Build 0)  -->
<svg version="1.1" id="Layer_1" xmlns="http://www.w3.org/2000/svg" xmlns:xlink="http://www.w3.org/1999/xlink" x="0px" y="0px"
	 viewBox="0 0 168 32" style="enable-background:new 0 0 168 32;" xml:space="preserve">
<style type="text/css">
	.st0{fill:#FFFFFF;}
</style>
<path class="st0" d="M37.3,24.4c0-2.3,2.5-12.8,6.8-21.1c-1.5,0.5-9.8,12.9-11.5,16.3c-0.4,0.1-2.9-1.5-2.9-2
	c-0.2-2,2.1-10.6,3.4-13.5c-0.4,0-2.2,2.6-4.4,6c-2.8,4-6,11.1-6.1,12.5c-1.1-0.2-3.1-1.5-2.9-2.6c1.4-3.3,4.7-7.6,7.2-10.8
	c2.3-2.9,5-5.9,5.8-6.2c1.1-0.2,3,1.1,3.3,2c-0.4,1-2.1,6.1-3,10c2.4-3.5,8.3-11.7,10.9-12.8c1.1-0.2,3.1,1.1,3.3,2
	c-2.1,3.3-6.6,17.7-6.8,21.7c0,0.3,0,0.6,0.1,0.8C40.1,26.8,37.4,24.9,37.3,24.4L37.3,24.4z M53.5,21.3c-0.8,2.2-1.5,4.4-2,6.6
	c-0.1,0.6-0.2,1.1-0.3,1.9c-0.1,0.1-0.2,0.1-0.2,0.1c-0.7,0-2.3-1.6-2.3-1.9c0-1,1-4,2.1-7.3c0.5-1.4,1-2.8,2.3-6.2
	c-2.2,3.4-5.5,8.1-5.8,8.1c-1.7,0.1-3.8-1.5-3.8-2.7c0.1-1,2.7-7.8,4.7-10.3c0.4-0.6,2.9,0.9,2.7,1c-0.3,0.2-0.8,1.2-1.1,1.9
	c-1,2.1-3,6.4-3.1,8.1c0,0.2,0.1,0.3,0.1,0.3c0.7,0,8.8-11.3,9.3-11.4c0.7-0.1,2.3,0.9,2.3,1.1C57.5,11,54.9,17.4,53.5,21.3
	L53.5,21.3z M130.7,23.5H119c-1.6,0-2-0.4-2-1.7v-6.5c0-0.2,0.2-0.4,0.4-0.4h6.8c0.2,0,0.4,0.1,0.6,0.3l6.1,7.9
	C131,23.3,130.9,23.5,130.7,23.5L130.7,23.5z M70.1,23.4h-2.7c-0.2,0-0.4-0.2-0.4-0.4V11c0-0.2,0.2-0.4,0.4-0.4l0,0h2.7
	c6.6,0,10.1,2.7,10.1,6.4C80.2,20.7,76.7,23.4,70.1,23.4z M148.5,13.2h-2c-0.3,0-0.7,0.3-0.7,0.3l-7.4,9.6c-0.1,0.1-0.3,0.2-0.4,0.1
	c-0.1,0-0.1-0.1-0.1-0.1l-6.8-9.5c-0.2-0.2-0.4-0.3-0.7-0.3h-13.1c-0.2,0-0.4-0.2-0.4-0.4l0,0V9.7c0-0.4-0.4-0.8-0.8-0.8h-20
	c-3.1,0.1-4.4,0.4-5.8,1.2c-1.3,0.7-2,1.7-2,2.9c0,1.2,1,2.4,3,3.6c0.5,0.3,2.4,1.2,5.6,2.7c2,1,3.1,1.7,3,2.5
	c-0.1,1.2-1.2,1.6-3.9,1.6H84.1c-0.3,0-0.6-0.1-0.6-0.3c0-0.1,0.1-0.2,0.2-0.3l0,0c2.7-1.6,3.6-3.8,3.6-5.8c0-3.7-3.1-8.2-15.6-8.2
	H60.9c-0.4,0-0.8,0.4-0.8,0.8v14.8c0,0.4,0.4,0.8,0.8,0.8l0,0h10.8c0.4,0,0.8,0,1.2,0H100c2.5,0,4.4-0.4,5.8-1.2
	c1.3-0.7,2-1.7,2-2.9c0-1.2-1-2.4-3-3.6c-0.5-0.3-2.4-1.2-5.6-2.7c-2-1-3-1.7-3-2.2c0-1.2,1.3-1.9,3.9-1.9h9.2
	c0.2,0,0.4,0.2,0.4,0.4v10.7c0,1.6,1,3.4,4.2,3.4h25.3c0.3,0,0.7-0.1,0.9-0.4l8.6-11.3C148.7,13.5,148.8,13.2,148.5,13.2L148.5,13.2
	z"/>
</svg>
